<svg width="16" height="193" viewBox="0 0 16 193" fill="none" xmlns="http://www.w3.org/2000/svg">
<path d="M7.29289 192.707C7.68342 193.098 8.31658 193.098 8.70711 192.707L15.0711 186.343C15.4616 185.953 15.4616 185.32 15.0711 184.929C14.6805 184.538 14.0474 184.538 13.6569 184.929L8 190.586L2.34315 184.929C1.95262 184.538 1.31946 184.538 0.928932 184.929C0.538408 185.32 0.538408 185.953 0.928932 186.343L7.29289 192.707ZM7 0V1H9V0H7ZM7 3V5H9V3H7ZM7 7V9H9V7H7ZM7 11V13H9V11H7ZM7 15V17H9V15H7ZM7 19V21H9V19H7ZM7 23V25H9V23H7ZM7 27V29H9V27H7ZM7 31V33H9V31H7ZM7 35V37H9V35H7ZM7 39V41H9V39H7ZM7 43V45H9V43H7ZM7 47V49H9V47H7ZM7 51V53H9V51H7ZM7 55V57H9V55H7ZM7 59V61H9V59H7ZM7 63V65H9V63H7ZM7 67V69H9V67H7ZM7 71V73H9V71H7ZM7 75V77H9V75H7ZM7 79V81H9V79H7ZM7 83V85H9V83H7ZM7 87V89H9V87H7ZM7 91V93H9V91H7ZM7 95V97H9V95H7ZM7 99V101H9V99H7ZM7 103V105H9V103H7ZM7 107V109H9V107H7ZM7 111V113H9V111H7ZM7 115V117H9V115H7ZM7 119V121H9V119H7ZM7 123V125H9V123H7ZM7 127V129H9V127H7ZM7 131V133H9V131H7ZM7 135V137H9V135H7ZM7 139V141H9V139H7ZM7 143V145H9V143H7ZM7 147V149H9V147H7ZM7 151V153H9V151H7ZM7 155V157H9V155H7ZM7 159V161H9V159H7ZM7 163V165H9V163H7ZM7 167V169H9V167H7ZM7 171V173H9V171H7ZM7 175V177H9V175H7ZM7 179V181H9V179H7ZM7 183V185H9V183H7ZM7 187V189H9V187H7ZM7 191V192H9V191H7Z" fill="#853DBE"/>
</svg>
